<svg xmlns="http://www.w3.org/2000/svg" version="1.1" xmlns:xlink="http://www.w3.org/1999/xlink" width="34" height="34"><svg width="34" height="34" viewBox="0 0 34 34" fill="none" xmlns="http://www.w3.org/2000/svg">
<ellipse cx="4.58209" cy="24.294" rx="3.58209" ry="3.52939" fill="#0000CC"></ellipse>
<ellipse cx="4.58209" cy="24.294" rx="3.58209" ry="3.52939" fill="#0000CC" fill-opacity="0.2"></ellipse>
<ellipse cx="4.58209" cy="24.294" rx="3.58209" ry="3.52939" stroke="#0000CC"></ellipse>
<ellipse cx="4.58209" cy="10.6476" rx="3.58209" ry="3.52939" fill="#0000CC"></ellipse>
<ellipse cx="4.58209" cy="10.6476" rx="3.58209" ry="3.52939" fill="#0000CC" fill-opacity="0.2"></ellipse>
<ellipse cx="4.58209" cy="10.6476" rx="3.58209" ry="3.52939" stroke="#0000CC"></ellipse>
<ellipse cx="16.5223" cy="4.52939" rx="3.58209" ry="3.52939" fill="#0000CC"></ellipse>
<ellipse cx="16.5223" cy="4.52939" rx="3.58209" ry="3.52939" fill="#0000CC" fill-opacity="0.2"></ellipse>
<ellipse cx="16.5223" cy="4.52939" rx="3.58209" ry="3.52939" stroke="#0000CC"></ellipse>
<ellipse cx="16.5223" cy="17.235" rx="3.58209" ry="3.52939" fill="#0000CC"></ellipse>
<ellipse cx="16.5223" cy="17.235" rx="3.58209" ry="3.52939" fill="#0000CC" fill-opacity="0.2"></ellipse>
<ellipse cx="16.5223" cy="17.235" rx="3.58209" ry="3.52939" stroke="#0000CC"></ellipse>
<ellipse cx="16.5223" cy="29.4708" rx="3.58209" ry="3.52939" fill="#0000CC"></ellipse>
<ellipse cx="16.5223" cy="29.4708" rx="3.58209" ry="3.52939" fill="#0000CC" fill-opacity="0.2"></ellipse>
<ellipse cx="16.5223" cy="29.4708" rx="3.58209" ry="3.52939" stroke="#0000CC"></ellipse>
<ellipse cx="29.4178" cy="17.235" rx="3.58209" ry="3.52939" fill="#0000CC"></ellipse>
<ellipse cx="29.4178" cy="17.235" rx="3.58209" ry="3.52939" fill="#0000CC" fill-opacity="0.2"></ellipse>
<ellipse cx="29.4178" cy="17.235" rx="3.58209" ry="3.52939" stroke="#0000CC"></ellipse>
<path d="M7.0187 8.00065C6.53149 8.26049 6.35203 8.86368 6.61787 9.3479C6.88371 9.83212 7.49418 10.014 7.98139 9.75417L7.50005 8.87741L7.0187 8.00065ZM7.50005 8.87741L7.98139 9.75417L13.9814 6.55419L13.5001 5.67744L13.0187 4.80068L7.0187 8.00065L7.50005 8.87741Z" fill="#0000CC"></path>
<path d="M19.9993 16.2461C19.447 16.2461 18.9996 16.6938 19 17.2461C19.0004 17.7984 19.4484 18.2461 20.0007 18.2461L20 17.2461L19.9993 16.2461ZM20 17.2461L20.0007 18.2461L26.0007 18.2461L26 17.2461L25.9993 16.2461L19.9993 16.2461L20 17.2461Z" fill="#0000CC"></path>
<path d="M19.7233 6.46303C19.3358 6.06951 18.6978 6.05965 18.2984 6.44101C17.899 6.82237 17.8893 7.45054 18.2769 7.84406L19.0001 7.15355L19.7233 6.46303ZM19.0001 7.15355L18.2769 7.84406L26.2769 15.9671L27.0001 15.2766L27.7233 14.5861L19.7233 6.46303L19.0001 7.15355Z" fill="#0000CC"></path>
<path d="M18.0654 26.2566C17.6574 26.6289 17.6333 27.2569 18.0115 27.6593C18.3897 28.0618 19.0271 28.0863 19.4351 27.7141L18.7502 26.9854L18.0654 26.2566ZM18.7502 26.9854L19.4351 27.7141L27.6073 20.2585L26.9225 19.5298L26.2377 18.8011L18.0654 26.2566L18.7502 26.9854Z" fill="#0000CC"></path>
<path d="M6.99785 21.5751C6.50632 21.8269 6.31683 22.427 6.57461 22.9155C6.83239 23.4039 7.43982 23.5957 7.93135 23.3439L7.4646 22.4595L6.99785 21.5751ZM7.4646 22.4595L7.93135 23.3439L14.3256 20.0678L13.8588 19.1834L13.3921 18.299L6.99785 21.5751L7.4646 22.4595Z" fill="#0000CC"></path>
<path d="M5.18062 20.7387C4.89504 21.2115 5.04973 21.8212 5.52612 22.1006C6.00252 22.38 6.62023 22.2232 6.90581 21.7505L6.04321 21.2446L5.18062 20.7387ZM6.04321 21.2446L6.90581 21.7505L15.4213 7.65498L14.5587 7.14909L13.6961 6.64319L5.18062 20.7387L6.04321 21.2446Z" fill="#0000CC"></path>
<path d="M8.04106 24.5723C7.53434 24.3526 6.94101 24.5833 6.71581 25.0876C6.49061 25.5919 6.71883 26.1788 7.22554 26.3984L7.6333 25.4854L8.04106 24.5723ZM7.6333 25.4854L7.22554 26.3984L13.0674 28.931L13.4751 28.0179L13.8829 27.1049L8.04106 24.5723L7.6333 25.4854Z" fill="#0000CC"></path>
<path d="M8.28116 11.4753C7.80948 11.1882 7.1893 11.3348 6.89595 11.8029C6.6026 12.2709 6.74716 12.8831 7.21884 13.1702L7.75 12.3228L8.28116 11.4753ZM7.75 12.3228L7.21884 13.1702L13.076 16.7355L13.6071 15.888L14.1383 15.0405L8.28116 11.4753L7.75 12.3228Z" fill="#0000CC"></path>
<path d="M7.35161 13.0295C7.05587 12.5631 6.43485 12.4197 5.96452 12.7092C5.49419 12.9987 5.35266 13.6115 5.64839 14.0779L6.5 13.5537L7.35161 13.0295ZM6.5 13.5537L5.64839 14.0779L13.9937 27.2398L14.8453 26.7156L15.6969 26.1915L7.35161 13.0295L6.5 13.5537Z" fill="#0000CC"></path>
</svg><style>@media (prefers-color-scheme: light) { :root { filter: none; } }
@media (prefers-color-scheme: dark) { :root { filter: none; } }
</style></svg>