<svg width="16" height="16" viewBox="0 0 16 16" fill="none" xmlns="http://www.w3.org/2000/svg">
<path fill-rule="evenodd" clip-rule="evenodd" d="M8.55517 12.7781C8.64892 12.8717 8.776 12.9243 8.9085 12.9243C9.041 12.9243 9.16809 12.8717 9.26184 12.7781L13.6865 8.35342C13.7801 8.25967 13.8327 8.13259 13.8327 8.00008C13.8327 7.86758 13.7801 7.7405 13.6865 7.64675L9.26184 3.22209C9.16705 3.13377 9.04169 3.08568 8.91216 3.08797C8.78262 3.09025 8.65903 3.14273 8.56742 3.23434C8.47581 3.32595 8.42334 3.44954 8.42105 3.57907C8.41877 3.7086 8.46685 3.83397 8.55517 3.92875L12.1258 7.50008H2.6665C2.5339 7.50008 2.40672 7.55276 2.31295 7.64653C2.21918 7.7403 2.1665 7.86748 2.1665 8.00008C2.1665 8.13269 2.21918 8.25987 2.31295 8.35364C2.40672 8.44741 2.5339 8.50008 2.6665 8.50008H12.1265L8.55517 12.0714C8.46154 12.1652 8.40894 12.2923 8.40894 12.4248C8.40894 12.5573 8.46154 12.6843 8.55517 12.7781Z" fill="#0000CC"/>
</svg>
