<svg width="16" height="16" viewBox="0 0 16 16" fill="none" xmlns="http://www.w3.org/2000/svg">
<path fill-rule="evenodd" clip-rule="evenodd" d="M7.44483 3.22192C7.35108 3.12828 7.224 3.07569 7.0915 3.07569C6.959 3.07569 6.83191 3.12828 6.73816 3.22192L2.3135 7.64658C2.21986 7.74033 2.16727 7.86741 2.16727 7.99992C2.16727 8.13242 2.21986 8.2595 2.3135 8.35325L6.73816 12.7779C6.83295 12.8662 6.95831 12.9143 7.08784 12.912C7.21738 12.9097 7.34097 12.8573 7.43258 12.7657C7.52419 12.6741 7.57666 12.5505 7.57895 12.4209C7.58123 12.2914 7.53315 12.166 7.44483 12.0712L3.87416 8.49992H13.3335C13.4661 8.49992 13.5933 8.44724 13.687 8.35347C13.7808 8.2597 13.8335 8.13252 13.8335 7.99992C13.8335 7.86731 13.7808 7.74013 13.687 7.64636C13.5933 7.55259 13.4661 7.49992 13.3335 7.49992L3.8735 7.49992L7.44483 3.92858C7.53846 3.83483 7.59106 3.70775 7.59106 3.57525C7.59106 3.44275 7.53846 3.31567 7.44483 3.22192Z" fill="#0000CC"/>
</svg>
