<svg width="269" height="74" viewBox="0 0 269 74" fill="none" xmlns="http://www.w3.org/2000/svg">
<g filter="url(#filter0_d_229_995)">
<ellipse cx="11.6642" cy="47.8166" rx="7.16418" ry="7.16912" fill="#0000CC"/>
<ellipse cx="11.6642" cy="47.8166" rx="7.16418" ry="7.16912" fill="#0000CC" fill-opacity="0.2"/>
<ellipse cx="11.6642" cy="47.8166" rx="7.16418" ry="7.16912" stroke="#0000CC"/>
<ellipse cx="11.6642" cy="20.0959" rx="7.16418" ry="7.16912" fill="#0000CC"/>
<ellipse cx="11.6642" cy="20.0959" rx="7.16418" ry="7.16912" fill="#0000CC" fill-opacity="0.2"/>
<ellipse cx="11.6642" cy="20.0959" rx="7.16418" ry="7.16912" stroke="#0000CC"/>
<ellipse cx="35.5446" cy="7.66912" rx="7.16418" ry="7.16912" fill="#0000CC"/>
<ellipse cx="35.5446" cy="7.66912" rx="7.16418" ry="7.16912" fill="#0000CC" fill-opacity="0.2"/>
<ellipse cx="35.5446" cy="7.66912" rx="7.16418" ry="7.16912" stroke="#0000CC"/>
<ellipse cx="35.5446" cy="33.4777" rx="7.16418" ry="7.16912" fill="#0000CC"/>
<ellipse cx="35.5446" cy="33.4777" rx="7.16418" ry="7.16912" fill="#0000CC"/>
<ellipse cx="35.5446" cy="33.4777" rx="7.16418" ry="7.16912" stroke="#0000CC"/>
<ellipse cx="35.5446" cy="58.3312" rx="7.16418" ry="7.16912" fill="#0000CC"/>
<ellipse cx="35.5446" cy="58.3312" rx="7.16418" ry="7.16912" fill="#0000CC" fill-opacity="0.2"/>
<ellipse cx="35.5446" cy="58.3312" rx="7.16418" ry="7.16912" stroke="#0000CC"/>
<ellipse cx="61.3361" cy="33.4777" rx="7.16418" ry="7.16912" fill="#0000CC"/>
<ellipse cx="61.3361" cy="33.4777" rx="7.16418" ry="7.16912" fill="#0000CC" fill-opacity="0.2"/>
<ellipse cx="61.3361" cy="33.4777" rx="7.16418" ry="7.16912" stroke="#0000CC"/>
<path d="M17.2874 15.4834C16.8021 15.7471 16.6222 16.3543 16.8855 16.8398C17.1489 17.3252 17.7558 17.505 18.2411 17.2414L17.7643 16.3624L17.2874 15.4834ZM17.7643 16.3624L18.2411 17.2414L29.3987 11.1798L28.9218 10.3008L28.445 9.42184L17.2874 15.4834L17.7643 16.3624Z" fill="#0000CC"/>
<path d="M42.5006 32.5C41.9483 32.4997 41.5003 32.9471 41.5 33.4994C41.4997 34.0517 41.9471 34.4997 42.4994 34.5L42.5 33.5L42.5006 32.5ZM42.5 33.5L42.4994 34.5L54.2133 34.5067L54.2139 33.5067L54.2144 32.5067L42.5006 32.5L42.5 33.5Z" fill="#0000CC"/>
<path d="M39.7786 13.6927C39.3962 13.2943 39.4091 12.6613 39.8075 12.2788C40.206 11.8963 40.839 11.9093 41.2214 12.3077L40.5 13.0002L39.7786 13.6927ZM40.5 13.0002L41.2214 12.3077L57.1377 28.8882L56.4163 29.5807L55.6948 30.2732L39.7786 13.6927L40.5 13.0002Z" fill="#0000CC"/>
<path d="M39.3208 52.5482C38.9157 52.9236 38.8914 53.5565 39.2665 53.9619C39.6416 54.3673 40.274 54.3916 40.6792 54.0162L40 53.2822L39.3208 52.5482ZM40 53.2822L40.6792 54.0162L57.0236 38.872L56.3445 38.138L55.6653 37.404L39.3208 52.5482L40 53.2822Z" fill="#0000CC"/>
<path d="M16.9681 43.2025C16.4782 43.4574 16.2875 44.0614 16.5421 44.5514C16.7968 45.0415 17.4004 45.2321 17.8903 44.9772L17.4292 44.0898L16.9681 43.2025ZM17.4292 44.0898L17.8903 44.9772L30.2324 38.5549L29.7713 37.6675L29.3102 36.7802L16.9681 43.2025L17.4292 44.0898Z" fill="#0000CC"/>
<path d="M13.7273 41.1103C13.4449 41.585 13.6007 42.1989 14.0752 42.4815C14.5497 42.7641 15.1632 42.6085 15.4456 42.1338L14.5864 41.6221L13.7273 41.1103ZM14.5864 41.6221L15.4456 42.1338L32.1782 14.0036L31.3191 13.4918L30.4599 12.9801L13.7273 41.1103L14.5864 41.6221Z" fill="#0000CC"/>
<path d="M18.1691 49.3199C17.6636 49.0974 17.0737 49.3268 16.8514 49.8324C16.6291 50.338 16.8586 50.9282 17.3641 51.1508L17.7666 50.2354L18.1691 49.3199ZM17.7666 50.2354L17.3641 51.1508L29.0478 56.2951L29.4503 55.3797L29.8528 54.4643L18.1691 49.3199L17.7666 50.2354Z" fill="#0000CC"/>
<path d="M18.5259 22.6495C18.0563 22.3587 17.4402 22.5038 17.1498 22.9736C16.8593 23.4433 17.0045 24.0598 17.4741 24.3505L18 23.5L18.5259 22.6495ZM18 23.5L17.4741 24.3505L28.5908 31.2337L29.1168 30.3832L29.6427 29.5327L18.5259 22.6495L18 23.5Z" fill="#0000CC"/>
<path d="M16.3528 25.4669C16.0603 24.9985 15.4435 24.856 14.9753 25.1488C14.507 25.4416 14.3645 26.0588 14.657 26.5272L15.5049 25.9971L16.3528 25.4669ZM15.5049 25.9971L14.657 26.5272L31.3494 53.2614L32.1973 52.7313L33.0452 52.2011L16.3528 25.4669L15.5049 25.9971Z" fill="#0000CC"/>
<path d="M75.658 33.5V15.3H79.142L89.88 28.404H88.19V15.3H92.35V33.5H88.892L78.128 20.396H79.818V33.5H75.658ZM100.53 22.632H109.292V25.908H100.53V22.632ZM100.842 30.12H110.748V33.5H96.656V15.3H110.41V18.68H100.842V30.12ZM122.185 33.812C119.603 33.812 117.583 33.0927 116.127 31.654C114.671 30.2153 113.943 28.1613 113.943 25.492V15.3H118.155V25.336C118.155 27.0693 118.511 28.3173 119.221 29.08C119.932 29.8427 120.929 30.224 122.211 30.224C123.494 30.224 124.491 29.8427 125.201 29.08C125.912 28.3173 126.267 27.0693 126.267 25.336V15.3H130.427V25.492C130.427 28.1613 129.699 30.2153 128.243 31.654C126.787 33.0927 124.768 33.812 122.185 33.812ZM134.59 33.5V15.3H142.468C144.097 15.3 145.501 15.5687 146.68 16.106C147.858 16.626 148.768 17.38 149.41 18.368C150.051 19.356 150.372 20.5347 150.372 21.904C150.372 23.256 150.051 24.426 149.41 25.414C148.768 26.3847 147.858 27.13 146.68 27.65C145.501 28.17 144.097 28.43 142.468 28.43H136.93L138.802 26.584V33.5H134.59ZM146.16 33.5L141.61 26.896H146.108L150.71 33.5H146.16ZM138.802 27.052L136.93 25.076H142.234C143.534 25.076 144.504 24.7987 145.146 24.244C145.787 23.672 146.108 22.892 146.108 21.904C146.108 20.8987 145.787 20.1187 145.146 19.564C144.504 19.0093 143.534 18.732 142.234 18.732H136.93L138.802 16.73V27.052ZM162.549 33.812C161.11 33.812 159.775 33.578 158.545 33.11C157.331 32.642 156.274 31.9833 155.373 31.134C154.489 30.2847 153.795 29.288 153.293 28.144C152.807 27 152.565 25.752 152.565 24.4C152.565 23.048 152.807 21.8 153.293 20.656C153.795 19.512 154.497 18.5153 155.399 17.666C156.3 16.8167 157.357 16.158 158.571 15.69C159.784 15.222 161.101 14.988 162.523 14.988C163.961 14.988 165.279 15.222 166.475 15.69C167.688 16.158 168.737 16.8167 169.621 17.666C170.522 18.5153 171.224 19.512 171.727 20.656C172.229 21.7827 172.481 23.0307 172.481 24.4C172.481 25.752 172.229 27.0087 171.727 28.17C171.224 29.314 170.522 30.3107 169.621 31.16C168.737 31.992 167.688 32.642 166.475 33.11C165.279 33.578 163.97 33.812 162.549 33.812ZM162.523 30.224C163.337 30.224 164.083 30.0853 164.759 29.808C165.452 29.5307 166.059 29.132 166.579 28.612C167.099 28.092 167.497 27.4767 167.775 26.766C168.069 26.0553 168.217 25.2667 168.217 24.4C168.217 23.5333 168.069 22.7447 167.775 22.034C167.497 21.3233 167.099 20.708 166.579 20.188C166.076 19.668 165.478 19.2693 164.785 18.992C164.091 18.7147 163.337 18.576 162.523 18.576C161.708 18.576 160.954 18.7147 160.261 18.992C159.585 19.2693 158.987 19.668 158.467 20.188C157.947 20.708 157.539 21.3233 157.245 22.034C156.967 22.7447 156.829 23.5333 156.829 24.4C156.829 25.2493 156.967 26.038 157.245 26.766C157.539 27.4767 157.938 28.092 158.441 28.612C158.961 29.132 159.567 29.5307 160.261 29.808C160.954 30.0853 161.708 30.224 162.523 30.224ZM184.356 33.812C182.952 33.812 181.644 33.5867 180.43 33.136C179.234 32.668 178.194 32.0093 177.31 31.16C176.426 30.3107 175.733 29.314 175.23 28.17C174.745 27.026 174.502 25.7693 174.502 24.4C174.502 23.0307 174.745 21.774 175.23 20.63C175.733 19.486 176.426 18.4893 177.31 17.64C178.212 16.7907 179.26 16.1407 180.456 15.69C181.652 15.222 182.961 14.988 184.382 14.988C185.96 14.988 187.381 15.2653 188.646 15.82C189.929 16.3573 191.004 17.1547 191.87 18.212L189.166 20.708C188.542 19.9973 187.849 19.4687 187.086 19.122C186.324 18.758 185.492 18.576 184.59 18.576C183.741 18.576 182.961 18.7147 182.25 18.992C181.54 19.2693 180.924 19.668 180.404 20.188C179.884 20.708 179.477 21.3233 179.182 22.034C178.905 22.7447 178.766 23.5333 178.766 24.4C178.766 25.2667 178.905 26.0553 179.182 26.766C179.477 27.4767 179.884 28.092 180.404 28.612C180.924 29.132 181.54 29.5307 182.25 29.808C182.961 30.0853 183.741 30.224 184.59 30.224C185.492 30.224 186.324 30.0507 187.086 29.704C187.849 29.34 188.542 28.794 189.166 28.066L191.87 30.562C191.004 31.6193 189.929 32.4253 188.646 32.98C187.381 33.5347 185.951 33.812 184.356 33.812ZM194.715 33.5V15.3H202.593C204.222 15.3 205.626 15.5687 206.805 16.106C207.983 16.626 208.893 17.38 209.535 18.368C210.176 19.356 210.497 20.5347 210.497 21.904C210.497 23.256 210.176 24.426 209.535 25.414C208.893 26.3847 207.983 27.13 206.805 27.65C205.626 28.17 204.222 28.43 202.593 28.43H197.055L198.927 26.584V33.5H194.715ZM206.285 33.5L201.735 26.896H206.233L210.835 33.5H206.285ZM198.927 27.052L197.055 25.076H202.359C203.659 25.076 204.629 24.7987 205.271 24.244C205.912 23.672 206.233 22.892 206.233 21.904C206.233 20.8987 205.912 20.1187 205.271 19.564C204.629 19.0093 203.659 18.732 202.359 18.732H197.055L198.927 16.73V27.052ZM211.442 33.5L219.554 15.3H223.714L231.852 33.5H227.432L220.776 17.432H222.44L215.758 33.5H211.442ZM215.498 29.6L216.616 26.402H225.976L227.12 29.6H215.498ZM237.64 23.49H246.376V26.87H237.64V23.49ZM237.952 33.5H233.74V15.3H247.494V18.68H237.952V33.5ZM254.242 33.5V18.732H248.418V15.3H264.278V18.732H258.454V33.5H254.242ZM81.638 55.812C80.182 55.812 78.7867 55.6213 77.452 55.24C76.1173 54.8413 75.0427 54.33 74.228 53.706L75.658 50.534C76.438 51.0887 77.3567 51.548 78.414 51.912C79.4887 52.2587 80.572 52.432 81.664 52.432C82.496 52.432 83.1633 52.354 83.666 52.198C84.186 52.0247 84.5673 51.7907 84.81 51.496C85.0527 51.2013 85.174 50.8633 85.174 50.482C85.174 49.9967 84.9833 49.6153 84.602 49.338C84.2207 49.0433 83.718 48.8093 83.094 48.636C82.47 48.4453 81.7767 48.272 81.014 48.116C80.2687 47.9427 79.5147 47.7347 78.752 47.492C78.0067 47.2493 77.322 46.9373 76.698 46.556C76.074 46.1747 75.5627 45.672 75.164 45.048C74.7827 44.424 74.592 43.6267 74.592 42.656C74.592 41.616 74.8693 40.6713 75.424 39.822C75.996 38.9553 76.8453 38.2707 77.972 37.768C79.116 37.248 80.546 36.988 82.262 36.988C83.406 36.988 84.5327 37.1267 85.642 37.404C86.7513 37.664 87.7307 38.0627 88.58 38.6L87.28 41.798C86.4307 41.3127 85.5813 40.9573 84.732 40.732C83.8827 40.4893 83.0507 40.368 82.236 40.368C81.4213 40.368 80.754 40.4633 80.234 40.654C79.714 40.8447 79.3413 41.096 79.116 41.408C78.8907 41.7027 78.778 42.0493 78.778 42.448C78.778 42.916 78.9687 43.2973 79.35 43.592C79.7313 43.8693 80.234 44.0947 80.858 44.268C81.482 44.4413 82.1667 44.6147 82.912 44.788C83.6747 44.9613 84.4287 45.1607 85.174 45.386C85.9367 45.6113 86.63 45.9147 87.254 46.296C87.878 46.6773 88.3807 47.18 88.762 47.804C89.1607 48.428 89.36 49.2167 89.36 50.17C89.36 51.1927 89.074 52.1287 88.502 52.978C87.93 53.8273 87.072 54.512 85.928 55.032C84.8013 55.552 83.3713 55.812 81.638 55.812ZM95.7542 55.5V40.732H89.9302V37.3H105.79V40.732H99.9662V55.5H95.7542ZM115.838 55.812C113.255 55.812 111.236 55.0927 109.78 53.654C108.324 52.2153 107.596 50.1613 107.596 47.492V37.3H111.808V47.336C111.808 49.0693 112.163 50.3173 112.874 51.08C113.584 51.8427 114.581 52.224 115.864 52.224C117.146 52.224 118.143 51.8427 118.854 51.08C119.564 50.3173 119.92 49.0693 119.92 47.336V37.3H124.08V47.492C124.08 50.1613 123.352 52.2153 121.896 53.654C120.44 55.0927 118.42 55.812 115.838 55.812ZM128.242 55.5V37.3H136.51C138.486 37.3 140.228 37.6813 141.736 38.444C143.244 39.1893 144.423 40.238 145.272 41.59C146.121 42.942 146.546 44.5453 146.546 46.4C146.546 48.2373 146.121 49.8407 145.272 51.21C144.423 52.562 143.244 53.6193 141.736 54.382C140.228 55.1273 138.486 55.5 136.51 55.5H128.242ZM132.454 52.042H136.302C137.515 52.042 138.564 51.8167 139.448 51.366C140.349 50.898 141.043 50.2393 141.528 49.39C142.031 48.5407 142.282 47.544 142.282 46.4C142.282 45.2387 142.031 44.242 141.528 43.41C141.043 42.5607 140.349 41.9107 139.448 41.46C138.564 40.992 137.515 40.758 136.302 40.758H132.454V52.042ZM149.722 55.5V37.3H153.934V55.5H149.722ZM167.094 55.812C165.655 55.812 164.32 55.578 163.09 55.11C161.876 54.642 160.819 53.9833 159.918 53.134C159.034 52.2847 158.34 51.288 157.838 50.144C157.352 49 157.11 47.752 157.11 46.4C157.11 45.048 157.352 43.8 157.838 42.656C158.34 41.512 159.042 40.5153 159.944 39.666C160.845 38.8167 161.902 38.158 163.116 37.69C164.329 37.222 165.646 36.988 167.068 36.988C168.506 36.988 169.824 37.222 171.02 37.69C172.233 38.158 173.282 38.8167 174.166 39.666C175.067 40.5153 175.769 41.512 176.272 42.656C176.774 43.7827 177.026 45.0307 177.026 46.4C177.026 47.752 176.774 49.0087 176.272 50.17C175.769 51.314 175.067 52.3107 174.166 53.16C173.282 53.992 172.233 54.642 171.02 55.11C169.824 55.578 168.515 55.812 167.094 55.812ZM167.068 52.224C167.882 52.224 168.628 52.0853 169.304 51.808C169.997 51.5307 170.604 51.132 171.124 50.612C171.644 50.092 172.042 49.4767 172.32 48.766C172.614 48.0553 172.762 47.2667 172.762 46.4C172.762 45.5333 172.614 44.7447 172.32 44.034C172.042 43.3233 171.644 42.708 171.124 42.188C170.621 41.668 170.023 41.2693 169.33 40.992C168.636 40.7147 167.882 40.576 167.068 40.576C166.253 40.576 165.499 40.7147 164.806 40.992C164.13 41.2693 163.532 41.668 163.012 42.188C162.492 42.708 162.084 43.3233 161.79 44.034C161.512 44.7447 161.374 45.5333 161.374 46.4C161.374 47.2493 161.512 48.038 161.79 48.766C162.084 49.4767 162.483 50.092 162.986 50.612C163.506 51.132 164.112 51.5307 164.806 51.808C165.499 52.0853 166.253 52.224 167.068 52.224Z" fill="#0000CC"/>
<path d="M75.658 33.5V15.3H79.142L89.88 28.404H88.19V15.3H92.35V33.5H88.892L78.128 20.396H79.818V33.5H75.658ZM100.53 22.632H109.292V25.908H100.53V22.632ZM100.842 30.12H110.748V33.5H96.656V15.3H110.41V18.68H100.842V30.12ZM122.185 33.812C119.603 33.812 117.583 33.0927 116.127 31.654C114.671 30.2153 113.943 28.1613 113.943 25.492V15.3H118.155V25.336C118.155 27.0693 118.511 28.3173 119.221 29.08C119.932 29.8427 120.929 30.224 122.211 30.224C123.494 30.224 124.491 29.8427 125.201 29.08C125.912 28.3173 126.267 27.0693 126.267 25.336V15.3H130.427V25.492C130.427 28.1613 129.699 30.2153 128.243 31.654C126.787 33.0927 124.768 33.812 122.185 33.812ZM134.59 33.5V15.3H142.468C144.097 15.3 145.501 15.5687 146.68 16.106C147.858 16.626 148.768 17.38 149.41 18.368C150.051 19.356 150.372 20.5347 150.372 21.904C150.372 23.256 150.051 24.426 149.41 25.414C148.768 26.3847 147.858 27.13 146.68 27.65C145.501 28.17 144.097 28.43 142.468 28.43H136.93L138.802 26.584V33.5H134.59ZM146.16 33.5L141.61 26.896H146.108L150.71 33.5H146.16ZM138.802 27.052L136.93 25.076H142.234C143.534 25.076 144.504 24.7987 145.146 24.244C145.787 23.672 146.108 22.892 146.108 21.904C146.108 20.8987 145.787 20.1187 145.146 19.564C144.504 19.0093 143.534 18.732 142.234 18.732H136.93L138.802 16.73V27.052ZM162.549 33.812C161.11 33.812 159.775 33.578 158.545 33.11C157.331 32.642 156.274 31.9833 155.373 31.134C154.489 30.2847 153.795 29.288 153.293 28.144C152.807 27 152.565 25.752 152.565 24.4C152.565 23.048 152.807 21.8 153.293 20.656C153.795 19.512 154.497 18.5153 155.399 17.666C156.3 16.8167 157.357 16.158 158.571 15.69C159.784 15.222 161.101 14.988 162.523 14.988C163.961 14.988 165.279 15.222 166.475 15.69C167.688 16.158 168.737 16.8167 169.621 17.666C170.522 18.5153 171.224 19.512 171.727 20.656C172.229 21.7827 172.481 23.0307 172.481 24.4C172.481 25.752 172.229 27.0087 171.727 28.17C171.224 29.314 170.522 30.3107 169.621 31.16C168.737 31.992 167.688 32.642 166.475 33.11C165.279 33.578 163.97 33.812 162.549 33.812ZM162.523 30.224C163.337 30.224 164.083 30.0853 164.759 29.808C165.452 29.5307 166.059 29.132 166.579 28.612C167.099 28.092 167.497 27.4767 167.775 26.766C168.069 26.0553 168.217 25.2667 168.217 24.4C168.217 23.5333 168.069 22.7447 167.775 22.034C167.497 21.3233 167.099 20.708 166.579 20.188C166.076 19.668 165.478 19.2693 164.785 18.992C164.091 18.7147 163.337 18.576 162.523 18.576C161.708 18.576 160.954 18.7147 160.261 18.992C159.585 19.2693 158.987 19.668 158.467 20.188C157.947 20.708 157.539 21.3233 157.245 22.034C156.967 22.7447 156.829 23.5333 156.829 24.4C156.829 25.2493 156.967 26.038 157.245 26.766C157.539 27.4767 157.938 28.092 158.441 28.612C158.961 29.132 159.567 29.5307 160.261 29.808C160.954 30.0853 161.708 30.224 162.523 30.224ZM184.356 33.812C182.952 33.812 181.644 33.5867 180.43 33.136C179.234 32.668 178.194 32.0093 177.31 31.16C176.426 30.3107 175.733 29.314 175.23 28.17C174.745 27.026 174.502 25.7693 174.502 24.4C174.502 23.0307 174.745 21.774 175.23 20.63C175.733 19.486 176.426 18.4893 177.31 17.64C178.212 16.7907 179.26 16.1407 180.456 15.69C181.652 15.222 182.961 14.988 184.382 14.988C185.96 14.988 187.381 15.2653 188.646 15.82C189.929 16.3573 191.004 17.1547 191.87 18.212L189.166 20.708C188.542 19.9973 187.849 19.4687 187.086 19.122C186.324 18.758 185.492 18.576 184.59 18.576C183.741 18.576 182.961 18.7147 182.25 18.992C181.54 19.2693 180.924 19.668 180.404 20.188C179.884 20.708 179.477 21.3233 179.182 22.034C178.905 22.7447 178.766 23.5333 178.766 24.4C178.766 25.2667 178.905 26.0553 179.182 26.766C179.477 27.4767 179.884 28.092 180.404 28.612C180.924 29.132 181.54 29.5307 182.25 29.808C182.961 30.0853 183.741 30.224 184.59 30.224C185.492 30.224 186.324 30.0507 187.086 29.704C187.849 29.34 188.542 28.794 189.166 28.066L191.87 30.562C191.004 31.6193 189.929 32.4253 188.646 32.98C187.381 33.5347 185.951 33.812 184.356 33.812ZM194.715 33.5V15.3H202.593C204.222 15.3 205.626 15.5687 206.805 16.106C207.983 16.626 208.893 17.38 209.535 18.368C210.176 19.356 210.497 20.5347 210.497 21.904C210.497 23.256 210.176 24.426 209.535 25.414C208.893 26.3847 207.983 27.13 206.805 27.65C205.626 28.17 204.222 28.43 202.593 28.43H197.055L198.927 26.584V33.5H194.715ZM206.285 33.5L201.735 26.896H206.233L210.835 33.5H206.285ZM198.927 27.052L197.055 25.076H202.359C203.659 25.076 204.629 24.7987 205.271 24.244C205.912 23.672 206.233 22.892 206.233 21.904C206.233 20.8987 205.912 20.1187 205.271 19.564C204.629 19.0093 203.659 18.732 202.359 18.732H197.055L198.927 16.73V27.052ZM211.442 33.5L219.554 15.3H223.714L231.852 33.5H227.432L220.776 17.432H222.44L215.758 33.5H211.442ZM215.498 29.6L216.616 26.402H225.976L227.12 29.6H215.498ZM237.64 23.49H246.376V26.87H237.64V23.49ZM237.952 33.5H233.74V15.3H247.494V18.68H237.952V33.5ZM254.242 33.5V18.732H248.418V15.3H264.278V18.732H258.454V33.5H254.242ZM81.638 55.812C80.182 55.812 78.7867 55.6213 77.452 55.24C76.1173 54.8413 75.0427 54.33 74.228 53.706L75.658 50.534C76.438 51.0887 77.3567 51.548 78.414 51.912C79.4887 52.2587 80.572 52.432 81.664 52.432C82.496 52.432 83.1633 52.354 83.666 52.198C84.186 52.0247 84.5673 51.7907 84.81 51.496C85.0527 51.2013 85.174 50.8633 85.174 50.482C85.174 49.9967 84.9833 49.6153 84.602 49.338C84.2207 49.0433 83.718 48.8093 83.094 48.636C82.47 48.4453 81.7767 48.272 81.014 48.116C80.2687 47.9427 79.5147 47.7347 78.752 47.492C78.0067 47.2493 77.322 46.9373 76.698 46.556C76.074 46.1747 75.5627 45.672 75.164 45.048C74.7827 44.424 74.592 43.6267 74.592 42.656C74.592 41.616 74.8693 40.6713 75.424 39.822C75.996 38.9553 76.8453 38.2707 77.972 37.768C79.116 37.248 80.546 36.988 82.262 36.988C83.406 36.988 84.5327 37.1267 85.642 37.404C86.7513 37.664 87.7307 38.0627 88.58 38.6L87.28 41.798C86.4307 41.3127 85.5813 40.9573 84.732 40.732C83.8827 40.4893 83.0507 40.368 82.236 40.368C81.4213 40.368 80.754 40.4633 80.234 40.654C79.714 40.8447 79.3413 41.096 79.116 41.408C78.8907 41.7027 78.778 42.0493 78.778 42.448C78.778 42.916 78.9687 43.2973 79.35 43.592C79.7313 43.8693 80.234 44.0947 80.858 44.268C81.482 44.4413 82.1667 44.6147 82.912 44.788C83.6747 44.9613 84.4287 45.1607 85.174 45.386C85.9367 45.6113 86.63 45.9147 87.254 46.296C87.878 46.6773 88.3807 47.18 88.762 47.804C89.1607 48.428 89.36 49.2167 89.36 50.17C89.36 51.1927 89.074 52.1287 88.502 52.978C87.93 53.8273 87.072 54.512 85.928 55.032C84.8013 55.552 83.3713 55.812 81.638 55.812ZM95.7542 55.5V40.732H89.9302V37.3H105.79V40.732H99.9662V55.5H95.7542ZM115.838 55.812C113.255 55.812 111.236 55.0927 109.78 53.654C108.324 52.2153 107.596 50.1613 107.596 47.492V37.3H111.808V47.336C111.808 49.0693 112.163 50.3173 112.874 51.08C113.584 51.8427 114.581 52.224 115.864 52.224C117.146 52.224 118.143 51.8427 118.854 51.08C119.564 50.3173 119.92 49.0693 119.92 47.336V37.3H124.08V47.492C124.08 50.1613 123.352 52.2153 121.896 53.654C120.44 55.0927 118.42 55.812 115.838 55.812ZM128.242 55.5V37.3H136.51C138.486 37.3 140.228 37.6813 141.736 38.444C143.244 39.1893 144.423 40.238 145.272 41.59C146.121 42.942 146.546 44.5453 146.546 46.4C146.546 48.2373 146.121 49.8407 145.272 51.21C144.423 52.562 143.244 53.6193 141.736 54.382C140.228 55.1273 138.486 55.5 136.51 55.5H128.242ZM132.454 52.042H136.302C137.515 52.042 138.564 51.8167 139.448 51.366C140.349 50.898 141.043 50.2393 141.528 49.39C142.031 48.5407 142.282 47.544 142.282 46.4C142.282 45.2387 142.031 44.242 141.528 43.41C141.043 42.5607 140.349 41.9107 139.448 41.46C138.564 40.992 137.515 40.758 136.302 40.758H132.454V52.042ZM149.722 55.5V37.3H153.934V55.5H149.722ZM167.094 55.812C165.655 55.812 164.32 55.578 163.09 55.11C161.876 54.642 160.819 53.9833 159.918 53.134C159.034 52.2847 158.34 51.288 157.838 50.144C157.352 49 157.11 47.752 157.11 46.4C157.11 45.048 157.352 43.8 157.838 42.656C158.34 41.512 159.042 40.5153 159.944 39.666C160.845 38.8167 161.902 38.158 163.116 37.69C164.329 37.222 165.646 36.988 167.068 36.988C168.506 36.988 169.824 37.222 171.02 37.69C172.233 38.158 173.282 38.8167 174.166 39.666C175.067 40.5153 175.769 41.512 176.272 42.656C176.774 43.7827 177.026 45.0307 177.026 46.4C177.026 47.752 176.774 49.0087 176.272 50.17C175.769 51.314 175.067 52.3107 174.166 53.16C173.282 53.992 172.233 54.642 171.02 55.11C169.824 55.578 168.515 55.812 167.094 55.812ZM167.068 52.224C167.882 52.224 168.628 52.0853 169.304 51.808C169.997 51.5307 170.604 51.132 171.124 50.612C171.644 50.092 172.042 49.4767 172.32 48.766C172.614 48.0553 172.762 47.2667 172.762 46.4C172.762 45.5333 172.614 44.7447 172.32 44.034C172.042 43.3233 171.644 42.708 171.124 42.188C170.621 41.668 170.023 41.2693 169.33 40.992C168.636 40.7147 167.882 40.576 167.068 40.576C166.253 40.576 165.499 40.7147 164.806 40.992C164.13 41.2693 163.532 41.668 163.012 42.188C162.492 42.708 162.084 43.3233 161.79 44.034C161.512 44.7447 161.374 45.5333 161.374 46.4C161.374 47.2493 161.512 48.038 161.79 48.766C162.084 49.4767 162.483 50.092 162.986 50.612C163.506 51.132 164.112 51.5307 164.806 51.808C165.499 52.0853 166.253 52.224 167.068 52.224Z" fill="#0000CC" fill-opacity="0.2"/>
</g>
<defs>
<filter id="filter0_d_229_995" x="0" y="0" width="268.278" height="74" filterUnits="userSpaceOnUse" color-interpolation-filters="sRGB">
<feFlood flood-opacity="0" result="BackgroundImageFix"/>
<feColorMatrix in="SourceAlpha" type="matrix" values="0 0 0 0 0 0 0 0 0 0 0 0 0 0 0 0 0 0 127 0" result="hardAlpha"/>
<feOffset dy="4"/>
<feGaussianBlur stdDeviation="2"/>
<feComposite in2="hardAlpha" operator="out"/>
<feColorMatrix type="matrix" values="0 0 0 0 0 0 0 0 0 0 0 0 0 0 0 0 0 0 0.25 0"/>
<feBlend mode="normal" in2="BackgroundImageFix" result="effect1_dropShadow_229_995"/>
<feBlend mode="normal" in="SourceGraphic" in2="effect1_dropShadow_229_995" result="shape"/>
</filter>
</defs>
</svg>
